<svg xmlns="http://www.w3.org/2000/svg" fill="none" viewBox="0 0 96 96" id="Ganache--Streamline-Svg-Logos">
  <desc>
    Ganache Streamline Icon: https://streamlinehq.com
  </desc>
  <path fill="#5e464d" d="M25.1186 72.2772c0.3996 -0.0024 0.7971 0.0589 1.1774 0.1817 0.3464 0.1108 0.6673 0.2895 0.9439 0.5257 0.2614 0.23 0.4709 0.5129 0.6148 0.83 0.158 0.3451 0.2367 0.7212 0.2306 1.1006 0.0001 0.3847 -0.074 0.7657 -0.2183 1.1222 -0.1474 0.3648 -0.345 0.7073 -0.5872 1.0176 -0.2527 0.3267 -0.5438 0.6219 -0.8669 0.8792 -0.3198 0.2597 -0.6636 0.4882 -1.0268 0.6825 -0.3491 0.1853 -0.7171 0.3327 -1.0976 0.4396 -0.3498 0.1011 -0.7118 0.1538 -1.076 0.1568 -0.2632 0.0054 -0.5199 -0.0816 -0.7255 -0.2459 -0.2191 -0.1939 -0.3332 -0.4803 -0.3074 -0.7717 0.0009 -0.0832 0.006 -0.1663 0.0153 -0.249 0.0111 -0.0842 0.0286 -0.1674 0.0523 -0.249 0.0182 -0.0677 0.0451 -0.1328 0.0799 -0.1937 0.02 -0.0453 0.0642 -0.0752 0.1138 -0.0768 0.0393 0.0008 0.0776 0.0125 0.1106 0.0338 0.0425 0.0291 0.0878 0.0538 0.1353 0.0738 0.0759 0.0303 0.154 0.055 0.2337 0.0737 0.1354 0.028 0.2736 0.0404 0.4119 0.0369 0.3301 -0.0078 0.6553 -0.082 0.9561 -0.2182 0.3402 -0.1483 0.657 -0.3451 0.9408 -0.5842 0.2902 -0.2329 0.5387 -0.5136 0.7347 -0.83 0.1847 -0.294 0.2837 -0.6336 0.2859 -0.9807 -0.002 -0.1344 -0.0269 -0.2675 -0.0737 -0.3935 -0.0521 -0.1435 -0.1338 -0.2745 -0.2398 -0.3843 -0.1237 -0.1319 -0.2734 -0.2366 -0.4397 -0.3075 -0.2138 -0.0856 -0.443 -0.1264 -0.6732 -0.1199 -0.4895 -0.0045 -0.9737 0.1005 -1.4173 0.3075 -0.4721 0.224 -0.9042 0.5242 -1.2789 0.8884 -0.4138 0.3989 -0.781 0.8434 -1.0945 1.3251 -0.336 0.5148 -0.6202 1.0616 -0.8485 1.6324 -0.235 0.5939 -0.4141 1.2083 -0.5349 1.8354 -0.1275 0.6149 -0.1924 1.2412 -0.1937 1.8692 -0.0089 0.6956 0.0561 1.3902 0.1937 2.0721 0.1077 0.5456 0.2942 1.0727 0.5534 1.5648 0.2024 0.3892 0.4892 0.7285 0.8393 0.993 0.3036 0.2242 0.6708 0.3459 1.0483 0.3474 0.3766 0.0041 0.7498 -0.0724 1.0944 -0.2245 0.3288 -0.1445 0.6312 -0.343 0.8947 -0.5871 0.2708 -0.255 0.5056 -0.5456 0.6978 -0.8639 0.1947 -0.3201 0.3613 -0.6565 0.4981 -1.0053 0.1317 -0.336 0.2345 -0.6826 0.3074 -1.0361 0.0646 -0.3126 0.0985 -0.6307 0.1015 -0.9499 -0.0004 -0.1264 -0.0076 -0.2526 -0.0216 -0.3782 -0.0128 -0.1092 -0.02 -0.219 -0.0215 -0.3289 -0.006 -0.0835 0.0156 -0.1667 0.0615 -0.2367 0.0432 -0.056 0.1005 -0.0995 0.166 -0.1261 0.0766 -0.0302 0.1576 -0.0478 0.2398 -0.0522h0.2859c0.1242 0.0033 0.2474 0.024 0.3659 0.0614 0.1373 0.0421 0.2694 0.0998 0.3935 0.1722 0.1153 0.0683 0.219 0.1544 0.3074 0.2552 0.0813 0.0821 0.1285 0.1919 0.1322 0.3074 -0.0615 0.5749 -0.0984 1.1221 -0.1137 1.6386 -0.0154 0.5165 -0.0246 1.0391 -0.0246 1.5741v3.3448c0.2213 -0.0369 0.4365 -0.0584 0.6456 -0.0738l0.5995 -0.04c0.2736 0 0.4519 0.0615 0.5318 0.2337 0.0815 0.181 0.0935 0.3856 0.0338 0.5749 -0.0609 0.2204 -0.1725 0.4236 -0.3258 0.5933 -0.1344 0.1669 -0.3334 0.2686 -0.5473 0.2798h-0.498c-0.0941 0 -0.1859 0.0066 -0.2829 0.0153l-0.2029 0.0185c-0.0215 0.3997 -0.0584 0.8055 -0.1014 1.2144 -0.0458 0.4015 -0.1208 0.7991 -0.2244 1.1897 -0.0979 0.3718 -0.2317 0.7332 -0.3997 1.0791 -0.1556 0.3246 -0.3633 0.6216 -0.6149 0.8792 -0.2506 0.2536 -0.5496 0.4543 -0.8792 0.5903 -0.3435 0.1383 -0.7092 0.2123 -1.0787 0.2187l-0.1234 -0.0004c-0.3685 0.0055 -0.7347 -0.0592 -1.079 -0.1906 -0.2983 -0.1212 -0.5699 -0.2999 -0.7994 -0.5257 -0.2294 -0.2254 -0.4086 -0.4967 -0.5257 -0.7963 -0.1253 -0.3169 -0.1879 -0.6552 -0.1844 -0.996 -0.0091 -0.5037 0.1172 -1.0006 0.3658 -1.4388 0.2485 -0.427 0.5761 -0.8026 0.9654 -1.1068 0.4204 -0.3314 0.8837 -0.6044 1.3772 -0.8116 0.517 -0.2211 1.048 -0.408 1.5895 -0.5595l-0.0004 -0.5423 -0.0027 -0.3131c-0.0023 -0.1516 -0.0064 -0.2959 -0.0134 -0.4331l-0.0081 -0.1349c-0.0154 -0.221 -0.0176 -0.4227 -0.017 -0.606l0.0016 -0.3102c-0.4423 0.6152 -1.0011 1.1375 -1.6448 1.5372 -0.5955 0.3619 -1.2799 0.5514 -1.9767 0.5472 -0.6737 0.0117 -1.3389 -0.1514 -1.9307 -0.4734 -0.5755 -0.3257 -1.0638 -0.7856 -1.4234 -1.3404 -0.4095 -0.6383 -0.7059 -1.3424 -0.8762 -2.0813 -0.211 -0.8903 -0.3142 -1.8028 -0.3074 -2.7177 0.0025 -0.73 0.0829 -1.4576 0.2398 -2.1705 0.16 -0.7396 0.3959 -1.4608 0.704 -2.152 0.3064 -0.6986 0.6834 -1.364 1.1252 -1.986 0.4278 -0.6047 0.9344 -1.1495 1.5064 -1.6201 0.5616 -0.4578 1.1898 -0.8268 1.863 -1.0945 0.695 -0.2736 1.4359 -0.4113 2.1828 -0.4061Zm0.5226 17.8774c-0.6609 0.1617 -1.2741 0.4777 -1.7892 0.9223 -0.3927 0.3512 -0.6165 0.8535 -0.6149 1.3803 -0.0368 0.2404 0.0373 0.4846 0.2017 0.6638 0.1643 0.1793 0.4011 0.2744 0.6437 0.2585l-0.0153 -0.0153c0.2489 0.0034 0.4893 -0.0903 0.6702 -0.2614 0.2045 -0.1983 0.3621 -0.4399 0.4611 -0.707 0.1333 -0.3258 0.2312 -0.6649 0.2921 -1.0115 0.073 -0.4068 0.1233 -0.8173 0.1506 -1.2297Zm37.2914 -16.5582c0.2093 0.1554 0.3334 0.4002 0.3351 0.6609v6.9818c0.1551 -0.2886 0.3287 -0.5668 0.5195 -0.8331 0.1798 -0.2444 0.386 -0.4681 0.6149 -0.6672 0.2067 -0.1849 0.4412 -0.3364 0.6948 -0.4488 0.2227 -0.0948 0.4605 -0.1483 0.7018 -0.1583l0.1036 -0.0016c0.332 -0.0129 0.6621 0.0546 0.9623 0.1968 0.2361 0.1197 0.4397 0.2948 0.5933 0.5103 0.1481 0.2086 0.2527 0.4449 0.3075 0.6948 0.0565 0.245 0.0854 0.4956 0.0861 0.7471v4.6391c0.0079 0.1121 0.0307 0.2227 0.0676 0.3289 0.0381 0.108 0.0989 0.2065 0.1783 0.289 0.0815 0.0776 0.1881 0.1222 0.2995 0.1267l0.0479 -0.0006c0.2263 0.0044 0.4459 -0.0769 0.6149 -0.2275 0.1798 -0.164 0.3305 -0.3574 0.4457 -0.5718 0.1271 -0.2371 0.2301 -0.4864 0.3075 -0.744l0.0449 -0.1583 0.0494 -0.1799c-0.0582 -0.2989 -0.0849 -0.6039 -0.079 -0.91 -0.0057 -0.6381 0.0983 -1.2725 0.3075 -1.8753 0.1865 -0.5412 0.4607 -1.048 0.8116 -1.5003 0.3128 -0.4024 0.7013 -0.7397 1.1436 -0.993 0.3994 -0.2303 0.8517 -0.3531 1.3128 -0.3566 0.3024 -0.0048 0.6029 0.0484 0.8854 0.1568 0.2529 0.0956 0.4817 0.2457 0.6702 0.4396 0.1839 0.1953 0.3252 0.4267 0.415 0.6794 0.0884 0.2771 0.1289 0.5671 0.1199 0.8578 -0.0015 0.4199 -0.0775 0.8363 -0.2244 1.2297 -0.1541 0.4262 -0.3774 0.824 -0.661 1.1774 -0.3103 0.385 -0.676 0.7218 -1.0853 0.9992 -0.4559 0.3054 -0.9599 0.532 -1.491 0.6702 0.0791 0.1841 0.1825 0.3568 0.3074 0.5134 0.1267 0.1641 0.2794 0.3063 0.452 0.4212 0.1893 0.1244 0.3967 0.2188 0.6148 0.2797 0.2245 0.0637 0.456 0.0987 0.6889 0.1042l0.1166 0.0004c0.405 0.0108 0.8073 -0.069 1.1775 -0.2337 0.3143 -0.147 0.5956 -0.3562 0.8269 -0.6148 0.225 -0.2581 0.4086 -0.5496 0.5442 -0.8639 0.1343 -0.3108 0.2372 -0.6342 0.3074 -0.9653 0.0281 -0.2004 0.1488 -0.3758 0.3259 -0.4735 0.1558 -0.079 0.335 -0.0987 0.5042 -0.0553 0.1717 0.0415 0.327 0.1336 0.4458 0.2644 0.1215 0.1293 0.178 0.3068 0.1537 0.4826 -0.0382 0.2485 -0.0895 0.4948 -0.1537 0.7379 -0.0791 0.2913 -0.1884 0.5736 -0.3259 0.8423 -0.1551 0.2978 -0.3417 0.5782 -0.5565 0.8362 -0.2374 0.284 -0.5161 0.5307 -0.827 0.7317 -0.3581 0.2282 -0.7475 0.4032 -1.1559 0.5196 -0.494 0.1389 -1.0056 0.2051 -1.5187 0.1967 -0.5255 -0.001 -1.0464 -0.0979 -1.5372 -0.2859 -0.4904 -0.1856 -0.9403 -0.4643 -1.325 -0.8208 -0.1667 -0.1578 -0.3191 -0.3292 -0.4557 -0.5122 -0.1028 0.1644 -0.2167 0.3221 -0.3405 0.4722 -0.2665 0.327 -0.5918 0.6012 -0.9592 0.8086 -0.3703 0.2051 -0.7849 0.3158 -1.2071 0.3231l-0.1056 -0.0003c-0.2849 0.0061 -0.5679 -0.0484 -0.8301 -0.1599 -0.2314 -0.1028 -0.4403 -0.2501 -0.6149 -0.4335 -0.1712 -0.1823 -0.303 -0.3979 -0.3873 -0.6333 -0.0879 -0.2467 -0.1326 -0.5067 -0.1322 -0.7686v-4.7744c-0.0067 -0.1301 -0.0284 -0.2591 -0.0646 -0.3843 -0.0275 -0.0985 -0.0781 -0.1892 -0.1475 -0.2643 -0.072 -0.0679 -0.1687 -0.1035 -0.2675 -0.0984 -0.2336 0.0309 -0.45 0.1391 -0.6149 0.3074 -0.2729 0.2393 -0.5146 0.512 -0.7194 0.8116 -0.2454 0.3526 -0.4516 0.7309 -0.6148 1.1283 -0.1742 0.4012 -0.2881 0.826 -0.3382 1.2605v3.4155c-0.0009 0.1002 -0.024 0.1989 -0.0676 0.289 -0.0427 0.0896 -0.1098 0.1653 -0.1937 0.2183 -0.1001 0.0567 -0.2125 0.0876 -0.3269 0.0902l-0.0574 -0.0011c-0.1238 -0.001 -0.2473 -0.0133 -0.3689 -0.0369 -0.1294 -0.0217 -0.2535 -0.0676 -0.3659 -0.1352 -0.1137 -0.0682 -0.2079 -0.1646 -0.2736 -0.2798 -0.0802 -0.1478 -0.1184 -0.3147 -0.1106 -0.4827l-0.0005 -0.205c-0.1717 0.1586 -0.3578 0.3014 -0.556 0.4264 -0.364 0.2276 -0.7583 0.4025 -1.1713 0.5196 -0.4955 0.136 -1.008 0.2002 -1.5218 0.1906 -0.5142 0.0007 -1.0247 -0.0867 -1.5095 -0.2583 -0.4791 -0.169 -0.92 -0.4313 -1.2973 -0.7716 -0.1662 -0.1511 -0.3179 -0.3164 -0.4536 -0.4937 -0.0878 0.1333 -0.1827 0.2622 -0.2843 0.3861 -0.2683 0.3275 -0.5957 0.6018 -0.9653 0.8085 -0.4033 0.2224 -0.8584 0.3337 -1.3189 0.3228 -0.3728 0.0088 -0.7421 -0.0736 -1.076 -0.2398 -0.29 -0.1461 -0.5376 -0.3642 -0.7194 -0.6333 -0.2481 0.2503 -0.5359 0.4581 -0.8516 0.6149 -0.3275 0.1605 -0.6858 0.2475 -1.0497 0.2552l-0.1093 -0.0001c-0.4153 0.0085 -0.8272 -0.0766 -1.2051 -0.249 -0.3379 -0.1588 -0.6362 -0.3909 -0.8731 -0.6794l-0.0615 -0.0791c-0.2473 0.2703 -0.5356 0.5003 -0.8546 0.6817 -0.3703 0.2051 -0.7849 0.3158 -1.2071 0.3231l-0.1057 -0.0003c-0.2849 0.0061 -0.5678 -0.0484 -0.83 -0.1599 -0.2314 -0.1028 -0.4403 -0.2501 -0.6149 -0.4335 -0.1723 -0.1815 -0.3043 -0.3973 -0.3874 -0.6333 -0.0878 -0.2467 -0.1325 -0.5067 -0.1322 -0.7686v-4.7744c-0.0066 -0.1301 -0.0283 -0.2591 -0.0645 -0.3843 -0.0275 -0.0985 -0.0781 -0.1892 -0.1476 -0.2643 -0.0729 -0.0684 -0.1707 -0.104 -0.2705 -0.0984 -0.2335 0.0311 -0.4499 0.1393 -0.6149 0.3074 -0.2751 0.2389 -0.5188 0.5116 -0.7255 0.8116 -0.2451 0.3506 -0.4513 0.7269 -0.6149 1.1221 -0.1741 0.4013 -0.2881 0.826 -0.3382 1.2605v3.4156c-0.0034 0.1001 -0.0275 0.1985 -0.0707 0.289 -0.0426 0.0895 -0.1098 0.1652 -0.1936 0.2182 -0.1168 0.0663 -0.2503 0.0972 -0.3843 0.0892 -0.1239 -0.001 -0.2474 -0.0134 -0.3689 -0.0369 -0.1294 -0.0217 -0.2535 -0.0676 -0.3659 -0.1353 -0.1137 -0.0682 -0.208 -0.1645 -0.2736 -0.2797 -0.0797 -0.1468 -0.118 -0.3125 -0.1108 -0.4793 -0.2309 0.2416 -0.4972 0.4477 -0.79 0.6115 -0.3724 0.2048 -0.7888 0.3155 -1.2127 0.323l-0.1062 -0.0002c-0.3728 0.0087 -0.7421 -0.0736 -1.076 -0.2398 -0.2899 -0.1462 -0.5376 -0.3642 -0.7193 -0.6333 -0.2482 0.2503 -0.5359 0.458 -0.8516 0.6148 -0.3276 0.1606 -0.6859 0.2475 -1.0497 0.2552l-0.1093 0c-0.4154 0.0085 -0.8272 -0.0766 -1.2052 -0.249 -0.3379 -0.1588 -0.6362 -0.3909 -0.8731 -0.6795 -0.244 -0.301 -0.4249 -0.6481 -0.5318 -1.0206 -0.122 -0.4089 -0.1821 -0.8338 -0.1783 -1.2605 -0.0111 -0.8143 0.1492 -1.6219 0.4703 -2.3703 0.2905 -0.6785 0.7139 -1.2921 1.2451 -1.8046 0.5124 -0.4915 1.1161 -0.878 1.777 -1.1375 0.6126 -0.242 1.2625 -0.3744 1.9202 -0.3916l0.1519 -0.0019c0.2793 -0.0137 0.5546 0.0711 0.7778 0.2398 0.2025 0.1541 0.3173 0.3974 0.3074 0.6517 0.0097 0.1305 -0.0124 0.2613 -0.0646 0.3813 -0.0509 0.0775 -0.1416 0.1193 -0.2336 0.1076 -0.1109 -0.0003 -0.2218 -0.0065 -0.332 -0.0185 -0.1173 -0.0151 -0.2354 -0.0223 -0.3536 -0.0215 -0.4613 0.0041 -0.9179 0.0938 -1.3465 0.2644 -0.4621 0.1818 -0.8809 0.4583 -1.2298 0.8116 -0.3966 0.3938 -0.7103 0.8632 -0.9223 1.3804 -0.2545 0.6348 -0.3779 1.3145 -0.3627 1.9983 -0.0295 0.4592 0.0961 0.915 0.3566 1.2942 0.2171 0.2743 0.5453 0.4352 0.8926 0.4407l0.0697 -0.001c0.3007 0.0069 0.5905 -0.1124 0.7993 -0.329 0.2169 -0.2236 0.3909 -0.4852 0.5134 -0.7716v-3.2834c0.0056 -0.087 0.0056 -0.1743 0 -0.2613 -0.0123 -0.0676 -0.0246 -0.1261 -0.0369 -0.1752 0 -0.0492 -0.0215 -0.0923 -0.0277 -0.1292 -0.0027 -0.0368 -0.0027 -0.0738 0 -0.1106 0.0055 -0.1145 0.0743 -0.2164 0.1783 -0.2644 0.1107 -0.0573 0.232 -0.0903 0.356 -0.0972l0.0621 -0.0012c0.3296 -0.0158 0.6547 0.0806 0.9223 0.2736 0.2071 0.1522 0.332 0.3918 0.3382 0.6487v3.5109c-0.0002 0.1173 0.0153 0.2341 0.0461 0.3473 0.0299 0.1086 0.0754 0.2122 0.1353 0.3075 0.138 0.2019 0.3705 0.3182 0.6148 0.3074l-0.0092 0.0277c0.2264 0.005 0.4463 -0.0763 0.6149 -0.2275 0.1799 -0.168 0.3296 -0.3656 0.4427 -0.5841 0.1283 -0.2365 0.2314 -0.4859 0.3074 -0.744 0.08 -0.2675 0.1445 -0.5165 0.1998 -0.7532 0.0195 -0.1124 0.0584 -0.22 0.1147 -0.318l-0.0101 -3.6479c0.0085 -0.1475 -0.0092 -0.2952 -0.0523 -0.4365 -0.0314 -0.0794 -0.0481 -0.1637 -0.0492 -0.2491 0.0094 -0.1117 0.0789 -0.2095 0.1814 -0.2551 0.1343 -0.0677 0.2831 -0.1014 0.4335 -0.0984 0.3298 -0.0183 0.6558 0.0784 0.9223 0.2736 0.2093 0.1555 0.3334 0.4003 0.3351 0.661v0.9561c0.1552 -0.2886 0.3287 -0.5668 0.5195 -0.8331 0.1806 -0.2437 0.3867 -0.4674 0.6149 -0.6672 0.2083 -0.1844 0.4437 -0.3358 0.6979 -0.4488 0.2227 -0.0948 0.4605 -0.1483 0.7018 -0.1583l0.1036 -0.0016c0.331 -0.0133 0.6602 0.0542 0.9592 0.1968 0.2376 0.1187 0.4424 0.294 0.5964 0.5103 0.1481 0.2086 0.2526 0.4449 0.3075 0.6948 0.0565 0.245 0.0854 0.4956 0.086 0.7471v4.6391c0.008 0.1121 0.0308 0.2227 0.0677 0.3289 0.0381 0.108 0.0989 0.2065 0.1783 0.289 0.0815 0.0776 0.1881 0.1222 0.2994 0.1267l0.048 -0.0006c0.2263 0.0044 0.4459 -0.0769 0.6148 -0.2275 0.1788 -0.1682 0.3275 -0.3658 0.4397 -0.5841 0.0379 -0.0708 0.0736 -0.1426 0.1072 -0.2154 -0.0473 -0.2603 -0.0696 -0.5248 -0.0673 -0.7899 -0.0119 -0.8164 0.1484 -1.6262 0.4704 -2.3765 0.286 -0.6772 0.704 -1.2907 1.2297 -1.8046 0.5124 -0.4915 1.1161 -0.878 1.777 -1.1375 0.6126 -0.242 1.2625 -0.3744 1.9202 -0.3916l0.1519 -0.0019c0.2793 -0.0132 0.5544 0.0716 0.7778 0.2398 0.2025 0.1541 0.3173 0.3974 0.3074 0.6517 0.0097 0.1305 -0.0124 0.2613 -0.0646 0.3813 -0.0509 0.0775 -0.1416 0.1193 -0.2336 0.1076 -0.1109 -0.0003 -0.2218 -0.0065 -0.332 -0.0185 -0.1173 -0.0151 -0.2354 -0.0223 -0.3536 -0.0215 -0.4613 0.0041 -0.9179 0.0938 -1.3465 0.2644 -0.4621 0.1818 -0.8809 0.4583 -1.2298 0.8116 -0.3911 0.3952 -0.6994 0.8645 -0.9069 1.3804 -0.1892 0.4718 -0.306 0.9686 -0.3472 1.4733 0.0173 0.0597 0.0264 0.1214 0.0275 0.1837v0.0523c-0.0021 0.0317 -0.0093 0.0629 -0.0215 0.0922l-0.0228 0.0773c0 0.0398 0.0004 0.0796 0.0013 0.1195 -0.0295 0.4592 0.0961 0.915 0.3566 1.2942 0.2165 0.2812 0.5486 0.4469 0.9008 0.4529l0.0707 -0.0009c0.3007 0.0069 0.5905 -0.1124 0.7993 -0.329 0.2169 -0.2236 0.3909 -0.4852 0.5134 -0.7716v-3.2957c0.0056 -0.087 0.0056 -0.1743 0 -0.2613 -0.0082 -0.0451 -0.0164 -0.0861 -0.0246 -0.123l-0.0123 -0.0522c-0.0123 -0.0492 -0.0215 -0.0923 -0.0277 -0.1292 -0.0027 -0.0368 -0.0027 -0.0738 0 -0.1106 0.0055 -0.1145 0.0743 -0.2164 0.1783 -0.2644 0.1319 -0.0684 0.2789 -0.1022 0.4274 -0.0984 0.3297 -0.0171 0.6552 0.0795 0.9223 0.2736 0.2135 0.1529 0.3414 0.3984 0.3443 0.661v3.5108c-0.0002 0.1174 0.0153 0.2342 0.0461 0.3474 0.0298 0.1086 0.0754 0.2121 0.1353 0.3075 0.138 0.2019 0.3705 0.3182 0.6148 0.3074l-0.0338 0.0154c0.2264 0.005 0.4462 -0.0763 0.6149 -0.2275 0.1798 -0.164 0.3306 -0.3574 0.4457 -0.5718 0.1284 -0.2365 0.2314 -0.4859 0.3075 -0.744 0.0225 -0.0753 0.0437 -0.149 0.0639 -0.2215 -0.0528 -0.2806 -0.0762 -0.5671 -0.0701 -0.8545 0.0001 -0.6098 0.0966 -1.2158 0.2859 -1.7954 0.177 -0.5632 0.4427 -1.0946 0.7871 -1.5741 0.3234 -0.4493 0.7331 -0.8297 1.2051 -1.119 0.4323 -0.2624 0.9247 -0.4078 1.4289 -0.423l0.1082 -0.0013c0.3566 -0.0117 0.7105 0.0654 1.0299 0.2244 0.2613 0.1332 0.4942 0.3159 0.6856 0.5381 0.1688 0.2015 0.2981 0.433 0.3812 0.6824 0.0738 0.2065 0.1143 0.4234 0.1199 0.6426 0.0022 0.1348 -0.0399 0.2665 -0.1199 0.375 -0.0789 0.1097 -0.1768 0.2045 -0.289 0.2798 -0.1165 0.0764 -0.244 0.1345 -0.3781 0.1722 -0.1187 0.0346 -0.2422 0.0502 -0.3659 0.0461 -0.0958 -0.0025 -0.1876 -0.0396 -0.2582 -0.1045 -0.0691 -0.0756 -0.0925 -0.1823 -0.0615 -0.2798 -0.0354 -0.1088 -0.0641 -0.2197 -0.0861 -0.332 -0.0281 -0.1329 -0.0746 -0.2612 -0.1383 -0.3812 -0.066 -0.1206 -0.1572 -0.2255 -0.2675 -0.3075 -0.1374 -0.0929 -0.3016 -0.1383 -0.4673 -0.1291 -0.2321 0.0105 -0.4517 0.1082 -0.6148 0.2736 -0.2245 0.2155 -0.407 0.471 -0.538 0.7532 -0.1663 0.3558 -0.2922 0.7291 -0.3751 1.1129 -0.0981 0.4431 -0.1465 0.8958 -0.1445 1.3496 -0.0073 0.3817 0.0531 0.7616 0.1783 1.1222 0.1049 0.3063 0.2748 0.5863 0.4981 0.8208 0.2125 0.2224 0.4719 0.3947 0.7593 0.5042 0.3042 0.1163 0.6274 0.1746 0.953 0.1721 0.4099 0.0101 0.8171 -0.0696 1.1929 -0.2336 0.3258 -0.1457 0.6194 -0.3547 0.8639 -0.6149 0.2355 -0.2555 0.4286 -0.5472 0.5718 -0.8638 0.138 -0.3094 0.2411 -0.6332 0.3074 -0.9654 0.0064 -0.0443 0.0173 -0.0873 0.0323 -0.1286l-0.0292 -9.497c0.0042 -0.1222 -0.0093 -0.2444 -0.04 -0.3628 -0.0185 -0.0745 -0.0454 -0.1467 -0.0799 -0.2152 -0.0144 -0.0294 -0.0312 -0.0575 -0.0501 -0.0841l-0.0298 -0.0389c-0.0254 -0.0265 -0.0397 -0.0617 -0.04 -0.0983 0.0019 -0.0446 0.0278 -0.0846 0.0676 -0.1046 0.058 -0.0325 0.12 -0.0573 0.1845 -0.0738 0.0805 -0.0224 0.1628 -0.0378 0.2459 -0.0461 0.0858 -0.0097 0.172 -0.0148 0.2583 -0.0153 0.3298 -0.0186 0.6559 0.0781 0.9223 0.2736Zm10.2436 6.9541c-0.1844 -0.0024 -0.3637 0.0596 -0.5073 0.1752 -0.1582 0.1288 -0.2906 0.2863 -0.3904 0.4642 -0.1154 0.2031 -0.2072 0.4187 -0.2737 0.6425 -0.0717 0.2374 -0.1302 0.4786 -0.1752 0.7225 -0.0442 0.2286 -0.075 0.4595 -0.0922 0.6917 -0.0153 0.182 -0.0204 0.3647 -0.0154 0.5472 -0.0046 0.0625 -0.0046 0.1251 0 0.1876v0.1967c0.2903 -0.1199 0.5617 -0.2815 0.8055 -0.4796 0.2379 -0.1895 0.4453 -0.4145 0.6148 -0.6671 0.3463 -0.5116 0.5296 -1.1161 0.5257 -1.7339 0.0112 -0.1924 -0.0348 -0.3839 -0.1322 -0.5503 -0.0755 -0.1258 -0.213 -0.201 -0.3596 -0.1967Z" stroke-width="1"></path>
  <path fill="#e4a663" d="M69.2198 50.2838c0.6855 0 0.9223 -0.1598 1.2481 -0.7163 0.3259 -0.5564 0.1691 -1.4603 0.1568 -1.7062 -0.0307 -0.5411 -0.2121 -1.1437 -0.2367 -1.4449 0 -0.1845 0 -1.362 0.0277 -1.8446 0.4119 -7.6366 3.6892 -9.4535 4.636 -9.6595 0.6039 -0.178 1.2516 -0.1344 1.8262 0.123V20.088c0 -1.6878 -1.199 -3.763 -2.6624 -4.6115L50.279 1.64215c-1.4757 -0.854657 -3.8829 -0.854657 -5.3339 -0.00922L21.0331 15.4489c-1.4603 0.8454 -2.6593 2.9206 -2.6562 4.6114v3.019c-0.0012 0.0174 -0.0012 0.0349 0 0.0523v4.4085c0.1383 0.0769 0.2767 0.1568 0.415 0.2429 0.4642 0.3074 0.9223 0.4765 1.3896 0.7993 1.3316 0.8114 2.5689 1.7683 3.6892 2.853 0.2183 0.209 0.9469 1.1252 1.119 1.3404 0.5292 0.7291 1.124 1.4083 1.777 2.029 0.3607 0.3289 0.7578 0.6157 1.1836 0.8547 0.704 0.3658 1.8661 0.2828 2.4594 0.0215 4.5562 -1.9737 7.4153 -0.9838 8.7341 -0.1906 3.2619 1.9583 4.3502 4.6975 4.6976 8.0239 0.0456 0.4309 0.06 0.8644 0.043 1.2974 0 0.7901 -0.0277 2.0598 0.8055 2.2719 1.1959 0.3074 1.4849 -0.9715 1.6632 -1.82 0.4027 -1.9215 2.9605 -3.1819 4.8328 -2.2135 1.2912 0.6671 1.82 1.0453 3.0958 0.4827 1.5956 -0.7041 2.4195 -2.4964 2.9759 -3.4494 0.5498 -0.928 1.3457 -1.6856 2.2996 -2.1889 2.4902 -1.5525 8.7495 -1.1498 8.977 5.7489l0 1.9184c0 0.6579 0.0215 1.3004 -0.0215 1.9799 -0.0277 0.4519 -0.1076 0.9222 -0.1507 1.3865 -0.0122 0 -0.2459 1.3496 0.8578 1.3557Z" stroke-width="1"></path>
  <path fill="#5e464d" d="M76.8714 35.0475c-0.1691 -0.0522 -0.661 -0.375 -1.82 -0.1229 -0.95 0.2059 -4.2241 2.0228 -4.636 9.6594 -0.0246 0.4704 -0.04 1.6479 -0.0277 1.8446 0.0246 0.3074 0.206 0.9039 0.2367 1.4449 0 0.246 0.1875 1.1375 -0.1568 1.7063 -0.3443 0.5687 -0.5626 0.7194 -1.2482 0.7163 -1.1036 0 -0.87 -1.3558 -0.87 -1.3558 0.0431 -0.4581 0.123 -0.9223 0.1507 -1.3865 0.043 -0.6794 0.0215 -1.3219 0.0215 -1.9798l0 -1.9184c-0.2275 -6.8988 -6.4868 -7.3015 -8.977 -5.749 -0.9539 0.5034 -1.7498 1.261 -2.2996 2.1889 -0.5564 0.9531 -1.3803 2.7454 -2.9759 3.4494 -1.2758 0.5626 -1.8046 0.1845 -3.0958 -0.4827 -1.8723 -0.9684 -4.4301 0.2921 -4.8328 2.2135 -0.1784 0.8486 -0.4673 2.1244 -1.6632 1.82 -0.8332 -0.2121 -0.8055 -1.4818 -0.8055 -2.2719 0.0169 -0.4329 0.0026 -0.8665 -0.0431 -1.2973 -0.3474 -3.3264 -1.4357 -6.0656 -4.6975 -8.024 -1.3189 -0.7931 -4.178 -1.7831 -8.7341 0.1906 -0.6149 0.2613 -1.7647 0.3444 -2.4594 -0.0215 -0.4258 -0.239 -0.8229 -0.5257 -1.1837 -0.8546 -0.653 -0.6207 -1.2478 -1.2999 -1.7769 -2.0291 -0.1722 -0.2152 -0.9008 -1.1313 -1.1191 -1.3404 -1.1202 -1.0847 -2.3575 -2.0415 -3.6891 -2.8529 -0.4673 -0.3075 -0.9223 -0.5042 -1.3896 -0.7994 -0.1384 -0.086 -0.2767 -0.166 -0.415 -0.2428v20.1582c0 1.6909 1.1989 3.766 2.6623 4.6115l23.9366 13.8343c1.4633 0.8485 3.8582 0.8485 5.3216 0l23.9396 -13.8159c1.4634 -0.8454 2.6593 -2.9206 2.6562 -4.6115l-0.0092 -12.6815Z" stroke-width="1"></path>
  <path fill="#ffffff" d="M50.6635 31.6596c-1.654 0.9562 -4.3625 0.9562 -6.0164 0l-24.4777 -12.912c0.2767 0.2736 24.822 14.5322 24.822 14.5322 1.4634 0.8485 3.8582 0.8485 5.3216 0 0 0 24.5115 -14.2156 24.7881 -14.4892l-24.4376 12.869Z" stroke-width="1"></path>
  <path fill="#ffffff" d="M44.6063 3.48369c1.657 -0.94689 4.3624 -0.94689 6.0195 0.00307l2.9667 1.22973c-0.2767 -0.27362 -3.3141 -2.24117 -3.3141 -2.24117 -1.4634 -0.84544 -3.8552 -0.84851 -5.3186 0 0 0 -4.8512 2.84988 -5.1248 3.12042l4.7713 -2.11205Z" stroke-width="1"></path>
</svg>